<svg width="55" height="55" viewBox="0 0 55 55" fill="none" xmlns="http://www.w3.org/2000/svg">
<path d="M0 55H55V0H0V55Z" fill="url(#paint0_linear)"/>
<path d="M43.2343 17.0463C40.4621 14.274 36.7327 12.7394 32.7888 12.7394C28.8449 12.7394 25.1155 14.274 22.3432 17.0463L22.0462 17.3433C21.3366 17.2278 20.6931 17.1618 19.9835 17.1618C16.6832 17.1618 13.4818 18.4654 11.1221 20.8747C6.22112 25.7757 6.22112 33.6965 11.1221 38.5975C13.4818 40.9572 16.6172 42.2608 19.9835 42.2608H33.1023C36.9967 42.1948 40.6106 40.6602 43.3168 37.9539C49.0264 32.1618 49.0264 22.7724 43.2343 17.0463V17.0463ZM20.0165 39.5545C17.3597 39.5545 14.934 38.4324 13.1023 36.5347C9.25742 32.6899 9.25742 26.5018 13.1023 22.7064C14.934 20.8747 17.4092 19.8186 20.0165 19.8186H20.0825C20.6106 19.8186 21.0231 19.8846 21.5017 19.9341C22.0297 20.0496 22.5083 20.1156 23.0363 20.2806C23.9769 20.5777 24.868 21.0562 25.6271 21.5843C25.9736 21.8813 26.4026 22.1123 26.6832 22.4753L26.9802 22.7724L30.9901 26.7823C31.5182 27.3103 31.5182 28.1354 30.9901 28.7295C30.6931 29.0265 30.396 29.142 30.0495 29.142C29.703 29.142 29.3399 29.0265 29.1089 28.7295L25.8086 25.4291L25.099 24.7196C24.9835 24.6041 24.868 24.5381 24.802 24.4225C23.8614 23.5975 22.7393 23.0694 21.5017 22.8219C21.0891 22.7064 20.6106 22.7064 20.198 22.7064H20.0165C18.1848 22.7724 16.5347 23.4819 15.231 24.7691C12.4587 27.5414 12.4587 31.9803 15.231 34.7526C16.5842 36.1057 18.3003 36.8153 20.2475 36.8153H21.4852L22.6733 37.9374C23.2673 38.5314 23.8614 39.1255 24.571 39.538H20.0165V39.5545ZM41.3366 36.0067C40.099 37.2443 38.6139 38.1849 36.9637 38.779C36.4357 38.9605 35.9571 39.076 35.4291 39.2575C34.6535 39.439 33.8284 39.5545 33.0033 39.5545H32.7723C29.934 39.5545 27.2772 38.614 25.1485 36.8318C24.8515 36.6008 24.5545 36.3037 24.2574 36.0562L18.5809 30.3796C18.0528 29.8516 18.0528 29.0265 18.5809 28.4324C18.8779 28.1354 19.1749 28.0199 19.5215 28.0199C19.868 28.0199 20.231 28.1354 20.462 28.4324L26.0726 34.043C26.6007 34.5711 27.1947 34.9836 27.7888 35.3961C29.2079 36.2872 30.8581 36.7493 32.6238 36.7493C33.3993 36.7493 34.2244 36.6338 34.934 36.4522C35.4126 36.3367 35.8746 36.1552 36.2871 35.9737C37.3432 35.4951 38.3498 34.8516 39.2409 33.9605C42.8383 30.3631 42.8383 24.4555 39.2409 20.8417C37.4093 19.01 35.0495 18.1189 32.6898 18.1189C30.8581 18.1189 29.0924 18.647 27.4918 19.7196C26.7162 19.1255 25.8911 18.5975 24.9505 18.1849C27.1947 16.3532 29.967 15.4126 32.6898 15.4126C35.7591 15.4126 38.8284 16.6008 41.1881 18.8945C46.0066 23.6635 46.0066 31.2872 41.3366 36.0067" fill="white"/>
<defs>
<linearGradient id="paint0_linear" x1="27.4957" y1="55.002" x2="27.4957" y2="-0.00216709" gradientUnits="userSpaceOnUse">
<stop stop-color="#911A1E"/>
<stop offset="1" stop-color="#D61E25"/>
</linearGradient>
</defs>
</svg>
