<svg width="45" height="45" viewBox="0 0 45 45" fill="none" xmlns="http://www.w3.org/2000/svg">
<path d="M44.5324 34.6078C42.9293 35.0156 41.9379 34.6254 41.0484 33.2894C39.0516 30.2976 36.8473 27.443 34.7203 24.5355C34.4461 24.1594 34.1613 23.7902 33.8063 23.3226C31.2891 26.7187 28.7754 29.9531 26.4164 33.3176C25.5727 34.5199 24.6867 35.0437 23.1117 34.6183L32.5758 21.9164L23.7656 10.4449C25.2809 10.1496 26.3285 10.3008 27.2566 11.6578C29.3063 14.6531 31.5668 17.5043 33.8203 20.5207C36.0879 17.5148 38.3203 14.6601 40.4297 11.693C41.277 10.4906 42.1875 10.0336 43.7098 10.4765C42.5566 12.0058 41.4281 13.5105 40.2926 15.0047C38.7598 17.0191 37.2551 19.0582 35.666 21.0305C35.1 21.7336 35.1914 22.1906 35.6977 22.8551C38.6367 26.7187 41.5406 30.6211 44.5324 34.6078Z" fill="white"/>
<path d="M0.467578 21.7055C0.720703 20.4363 0.889453 19.1426 1.24102 17.8981C3.35039 10.3641 11.9988 7.23165 17.9402 11.9004C21.4207 14.6391 22.2855 18.4992 22.1133 22.8516H2.49609C2.20078 30.6598 7.82227 35.3742 14.9871 32.9695C17.5008 32.1258 18.9809 30.157 19.7227 27.6961C20.0988 26.4621 20.7211 26.2688 21.8813 26.6203C21.2871 29.7 19.9406 32.2734 17.1281 33.8836C12.9094 36.2953 6.88711 35.5149 3.71953 32.1645C1.84922 30.1957 1.05469 27.7453 0.703125 25.0981C0.650391 24.6762 0.541406 24.2613 0.457031 23.843C0.464062 23.1305 0.467578 22.418 0.467578 21.7055ZM2.53125 21.1817H20.2605C20.1445 15.5356 16.6289 11.5242 11.823 11.4891C6.54961 11.4469 2.75977 15.3633 2.53125 21.1817Z" fill="white"/>
</svg>
