<svg width="40" height="60" viewBox="0 0 40 60" fill="none" xmlns="http://www.w3.org/2000/svg">
<g clip-path="url(#clip0)">
<path d="M10.0019 59.9883C15.5208 59.9883 19.9999 55.5091 19.9999 49.9902V39.9921H10.0019C4.48302 39.9921 0.00393677 44.4712 0.00393677 49.9902C0.00393677 55.5091 4.48302 59.9883 10.0019 59.9883Z" fill="#0ACF83"/>
<path d="M0.00393677 29.9939C0.00393677 24.4751 4.48302 19.996 10.0019 19.996H19.9999V39.9919H10.0019C4.48302 39.9919 0.00393677 35.5128 0.00393677 29.9939Z" fill="#A259FF"/>
<path d="M0.00541306 9.998C0.00541306 4.4791 4.4845 0 10.0034 0H20.0013V19.996H10.0034C4.4845 19.996 0.00541306 15.5169 0.00541306 9.998Z" fill="#F24E1E"/>
<path d="M20 0H29.998C35.517 0 39.9961 4.4791 39.9961 9.998C39.9961 15.5169 35.517 19.996 29.998 19.996H20V0Z" fill="#FF7262"/>
<path d="M39.9961 29.9939C39.9961 35.5128 35.517 39.9919 29.998 39.9919C24.4791 39.9919 20 35.5128 20 29.9939C20 24.4751 24.4791 19.996 29.998 19.996C35.517 19.996 39.9961 24.4751 39.9961 29.9939Z" fill="#1ABCFE"/>
</g>
<defs>
<clipPath id="clip0">
<rect width="40" height="59.988" fill="white"/>
</clipPath>
</defs>
</svg>
