<svg width="45" height="45" viewBox="0 0 45 45" fill="none" xmlns="http://www.w3.org/2000/svg">
<path d="M0.703125 0.351562V44.2969H44.6484V0.351562H0.703125ZM23.9481 37.7975C23.2995 39.1155 22.0613 39.9814 20.6265 40.3995C18.4219 40.9057 16.3132 40.6171 14.7445 39.6756C13.6948 39.0315 12.8749 38.0401 12.3184 36.8979L15.6653 34.8483C15.6945 34.8606 15.7823 35.0195 15.8998 35.2248C16.3266 35.9399 16.6946 36.4461 17.4182 36.8016C18.129 37.0441 19.6896 37.1992 20.2922 35.9483C20.6603 35.312 20.5432 33.2666 20.5432 31.0036C20.5429 27.4475 20.5594 23.9062 20.5594 20.3906H24.6758C24.6758 24.2578 24.6969 27.9204 24.6758 31.6941C24.6846 34.0073 24.8854 36.0696 23.9481 37.7975ZM41.0249 36.6346C39.594 41.529 31.6164 41.6879 28.4284 38.4543C27.7548 37.6931 27.3326 37.2955 26.9307 36.417C28.6249 35.4424 28.6249 35.4424 30.2734 34.4886C31.1688 35.865 31.9968 36.6219 33.4863 36.9316C35.5071 37.1784 37.5402 36.4841 37.0842 34.3378C36.6156 32.5849 32.9463 32.1585 30.4492 30.2839C27.9141 28.5813 27.3199 24.4441 29.4033 22.0802C30.0976 21.2059 31.2817 20.5534 32.5241 20.2398L33.8207 20.0721C36.3101 20.0218 37.8661 20.6793 39.0083 21.9547C39.3261 22.2768 39.5856 22.6241 40.0707 23.3768C38.7446 24.222 38.7489 24.2139 36.8494 25.4436C36.4437 24.5696 35.7704 24.0212 35.0589 23.7829C33.9543 23.4482 32.5614 23.812 32.2724 24.9792C32.1722 25.3389 32.1929 25.6736 32.3522 26.2677C32.7997 27.2883 34.3016 27.732 35.6488 28.3511C39.5269 29.9239 40.8364 31.6104 41.1585 33.6178C41.4686 35.3461 41.0836 36.4672 41.0249 36.6346Z" fill="#F0DB4F"/>
</svg>
