<svg width="55" height="39" viewBox="0 0 55 39" fill="none" xmlns="http://www.w3.org/2000/svg">
<g clip-path="url(#clip0)">
<path d="M32.0814 11.8553L34.3732 9.56373C35.0359 8.90083 35.6679 8.31848 36.2657 7.82034C36.8635 7.32198 37.4613 6.80859 38.0593 6.27607C39.3869 5.1479 40.4828 4.35074 41.3468 3.88525C42.2088 3.42126 43.0401 3.18798 43.8373 3.18798C44.9654 3.18798 45.9791 3.60385 46.8755 4.43323C47.7721 5.26432 48.2202 6.2112 48.2202 7.27257C48.2202 8.06952 48.0041 8.88364 47.5728 9.71345C47.1402 10.5448 46.3604 11.6903 45.2316 13.1502C40.0515 19.9246 37.4613 24.308 37.4613 26.3004C37.4613 27.1643 37.8927 27.5957 38.7562 27.5957C39.4195 27.5957 40.1512 27.3136 40.9483 26.7484C41.7448 26.1852 42.774 25.2044 44.0364 23.8099C44.6993 23.0797 45.5136 22.0832 46.4768 20.8212C47.4392 19.5601 48.2857 18.3977 49.0174 17.3344C49.7477 16.2726 50.3623 15.541 50.8604 15.143C51.3586 14.7443 51.9392 14.5451 52.6038 14.5451C53.2672 14.5451 53.8321 14.7784 54.2972 15.242C54.7614 15.7075 54.9946 16.2726 54.9946 16.936C54.9946 18.1984 54.4127 19.875 53.2513 21.9668C52.0887 24.0588 50.5769 26.2007 48.7184 28.3924C46.3931 31.1817 44.0192 33.3409 41.5957 34.8676C39.1706 36.3951 36.9632 37.1594 34.971 37.1594C33.1106 37.1594 31.5837 36.5442 30.3881 35.3163C29.1925 34.088 28.5951 32.5111 28.5951 30.5843C28.5951 29.5878 28.6776 28.6416 28.8441 27.7449C29.0092 26.8481 29.258 25.9191 29.591 24.9554C29.9226 23.9933 30.3881 22.9633 30.9859 21.8671C31.5837 20.7712 32.3463 19.5601 33.2771 18.2311C33.3426 18.0987 33.5093 17.8326 33.7754 17.4341C32.0473 18.7636 30.3385 20.4395 28.6447 22.4652C26.9514 24.4914 25.2406 27.0975 23.5142 30.2853C22.2516 32.4115 21.2884 33.8219 20.6251 34.5192C19.9604 35.2167 19.1311 35.5651 18.1348 35.5651C17.0715 35.5651 16.192 35.184 15.4946 34.4197C14.7971 33.6567 14.4487 32.7103 14.4487 31.5801C14.4487 30.8504 14.5309 30.1358 14.6974 29.4383C14.8626 28.7412 15.2117 27.7948 15.744 26.5994C16.075 25.6699 16.5063 24.6566 17.0388 23.5605C17.5696 22.4652 18.0351 21.618 18.4336 21.0206L20.3263 17.7329C20.4586 17.6006 20.6579 17.2689 20.9241 16.7366C19.5946 17.7999 18.2998 19.0123 17.0388 20.3727C15.7737 21.7376 14.5608 23.1501 13.4028 24.607C12.2398 26.0684 11.2111 27.5456 10.3145 29.04C9.41763 30.5342 8.67053 31.9786 8.07293 33.3736C7.27577 35.2334 6.56282 36.4774 5.93086 37.1093C5.30082 37.7398 4.48627 38.0556 3.48999 38.0556C2.49413 38.0556 1.66433 37.6571 0.999496 36.8604C0.336811 36.0634 0.00364304 35.0343 0.00364304 33.7721C0.00364304 31.2489 1.23299 26.8982 3.68933 20.7216C5.0843 17.2021 6.59569 13.9471 8.222 10.9587C9.84897 7.97006 11.46 5.41405 13.0537 3.28744C13.9832 2.09224 14.7803 1.24525 15.4449 0.747535C16.1078 0.249178 16.8395 0 17.6366 0C18.4991 0 19.2462 0.299014 19.8782 0.896613C20.5086 1.49443 20.8244 2.22607 20.8244 3.08831C20.8244 3.75293 20.6753 4.45041 20.3763 5.18055C20.0775 5.91219 19.3626 7.1729 18.2342 8.96591C17.9309 9.47796 17.632 9.99267 17.3376 10.51C16.9392 11.2074 16.441 12.0888 15.8436 13.1502L14.7475 15.3417C16.7398 12.9508 18.4832 10.9258 19.9776 9.26493C21.4718 7.60553 22.7826 6.27607 23.9127 5.28022C25.0415 4.28394 26.0548 3.55359 26.9514 3.08831C27.8476 2.62475 28.6602 2.39125 29.3918 2.39125C30.3213 2.39125 31.1185 2.70702 31.7831 3.33749C32.446 3.96946 32.7789 4.74943 32.7789 5.67826C32.7789 6.27608 32.6451 6.94091 32.3805 7.67104C32.1143 8.40268 31.5491 9.53108 30.6871 11.0582L28.5951 14.8439L27.7982 16.3382L28.9931 15.0433C30.1888 13.7821 31.2181 12.7188 32.0814 11.8553V11.8553Z" fill="#1991EB"/>
</g>
<defs>
<clipPath id="clip0">
<rect width="55" height="38.236" fill="white"/>
</clipPath>
</defs>
</svg>
