<svg width="24" height="24" viewBox="0 0 24 24" fill="none" xmlns="http://www.w3.org/2000/svg">
<g clip-path="url(#clip0)">
<path d="M22.7333 11H1.26667C0.567106 11 0 11.638 0 12.425V12.575C0 13.362 0.567106 14 1.26667 14H22.7333C23.4329 14 24 13.362 24 12.575V12.425C24 11.638 23.4329 11 22.7333 11Z" fill="white"/>
<path d="M22.7333 19H1.26667C0.567106 19 0 19.638 0 20.425V20.575C0 21.362 0.567106 22 1.26667 22H22.7333C23.4329 22 24 21.362 24 20.575V20.425C24 19.638 23.4329 19 22.7333 19Z" fill="white"/>
<path d="M22.7333 3H1.26667C0.567106 3 0 3.63799 0 4.425V4.575C0 5.36201 0.567106 6 1.26667 6H22.7333C23.4329 6 24 5.36201 24 4.575V4.425C24 3.63799 23.4329 3 22.7333 3Z" fill="white"/>
</g>
<defs>
<clipPath id="clip0">
<rect width="24" height="24" fill="white"/>
</clipPath>
</defs>
</svg>
