<svg width="45" height="45" viewBox="0 0 45 45" fill="none" xmlns="http://www.w3.org/2000/svg">
<path d="M39.6461 10.6643L24.1432 1.66254C23.1655 1.10567 21.8925 1.10567 20.9071 1.66254L5.23863 10.6643C4.22965 11.2447 3.51562 12.3356 3.51562 13.5025V31.4821C3.51562 32.6489 4.24828 33.7402 5.25727 34.3238L9.39691 36.675C11.3755 37.6495 12.0748 37.6495 12.9751 37.6495C15.9047 37.6495 17.5781 35.878 17.5781 32.7881V15.0377C17.5781 14.7871 17.4477 14.4141 17.2016 14.4141H15.2248C14.9745 14.4141 14.4141 14.7871 14.4141 15.0374V32.7878C14.4141 34.1575 13.1752 35.5205 10.8598 34.3628L6.5823 31.8973C6.43324 31.8164 6.32812 31.6536 6.32812 31.4821V13.5025C6.32812 13.333 6.52324 13.1629 6.67336 13.076L22.2912 4.08973C22.4371 4.00711 22.6515 4.00711 22.7971 4.08973L38.2243 13.0739C38.372 13.1629 38.32 13.3277 38.32 13.5025V31.4821C38.32 31.6536 38.3843 31.8206 38.2384 31.9032L22.7394 40.8948C22.6065 40.9746 22.4416 40.9746 22.2961 40.8948L18.321 38.5221C18.2011 38.4525 18.0587 38.4275 17.9438 38.4919C16.8377 39.1187 16.6338 39.202 15.5964 39.5617C15.3411 39.6506 14.9646 39.805 15.7405 40.2398L20.9429 43.3174C21.4411 43.6057 22.0071 43.7555 22.5766 43.7555C23.1539 43.7555 23.7192 43.6057 24.2174 43.3174L39.6457 34.3238C40.6547 33.7359 41.1328 32.6489 41.1328 31.4821V13.5025C41.1328 12.3356 40.6547 11.2475 39.6461 10.6643ZM27.3902 28.633C23.2678 28.633 22.3597 27.4957 22.057 25.4457C22.0219 25.225 21.8345 24.9609 21.6098 24.9609H19.595C19.3458 24.9609 19.1454 25.2633 19.1454 25.5115C19.1454 28.1363 20.5724 31.3165 27.3906 31.3165C32.3262 31.3165 35.1559 29.3987 35.1559 26.0047C35.1559 22.6396 32.8823 21.7565 28.0958 21.1229C23.2576 20.4834 22.7661 20.1604 22.7661 19.0269C22.7661 18.0925 23.1824 16.8462 26.7648 16.8462C29.9658 16.8462 31.1456 17.5331 31.6311 19.6907C31.6726 19.8935 31.8579 20.0391 32.0671 20.0391H34.09C34.2144 20.0391 34.3332 19.9888 34.4204 19.8998C34.5048 19.8042 34.5495 19.6843 34.5382 19.5557C34.225 15.8404 31.7566 14.1089 26.7645 14.1089C22.3239 14.1089 19.6748 15.9841 19.6748 19.1275C19.6748 22.5369 22.3105 23.4791 26.5732 23.9006C31.6726 24.4006 32.0692 25.1459 32.0692 26.1489C32.0692 27.8909 30.6707 28.633 27.3902 28.633Z" fill="#83CD29"/>
</svg>
