<svg width="40" height="55" viewBox="0 0 40 55" fill="none" xmlns="http://www.w3.org/2000/svg">
<g clip-path="url(#clip0)">
<path fill-rule="evenodd" clip-rule="evenodd" d="M0.269997 45.6844V19.73C0.269997 8.83337 9.10336 0 20 0C30.8966 0 39.7299 8.83337 39.7299 19.73C39.7299 30.4832 31.1273 39.2272 20.4289 39.4553V39.46C17.3493 39.46 14.853 36.9637 14.853 33.8841C14.853 30.8333 17.3031 28.3547 20.3431 28.3089V28.3016C24.9216 28.1214 28.5782 24.3526 28.5782 19.73C28.5782 14.9924 24.7376 11.1517 20 11.1517C15.2624 11.1517 11.4217 14.9924 11.4217 19.73V48.4671C11.4217 51.5467 8.92545 54.043 5.84586 54.043C4.69876 54.0449 3.57926 53.6912 2.64137 53.0308C4.24516 52.5621 5.41694 51.0804 5.41694 49.325C5.41694 47.1931 3.6886 45.4648 1.55673 45.4648C1.10552 45.4648 0.672488 45.5421 0.269997 45.6844ZM20.4289 37.7443C22.5607 37.7443 24.2891 36.016 24.2891 33.8841C24.2891 31.7522 22.5607 30.0239 20.4289 30.0239C18.297 30.0239 16.5687 31.7522 16.5687 33.8841C16.5687 36.016 18.297 37.7443 20.4289 37.7443Z" fill="url(#paint0_linear)"/>
</g>
<defs>
<linearGradient id="paint0_linear" x1="20" y1="0" x2="20" y2="33.8407" gradientUnits="userSpaceOnUse">
<stop stop-color="#D378E5"/>
<stop offset="1" stop-color="#7526C2"/>
</linearGradient>
<clipPath id="clip0">
<rect width="40" height="54.7945" fill="white"/>
</clipPath>
</defs>
</svg>
