<svg width="24" height="24" viewBox="0 0 24 24" fill="none" xmlns="http://www.w3.org/2000/svg">
<path d="M8.51003 20H8.43003C6.81839 19.9859 5.23006 19.6136 3.78003 18.91C3.5133 18.7847 3.29369 18.5773 3.15333 18.3182C3.01298 18.0591 2.95926 17.7619 3.00003 17.47C3.04437 17.1762 3.18042 16.9039 3.38874 16.692C3.59706 16.48 3.867 16.3394 4.16003 16.29C5.05864 16.1701 5.92312 15.8672 6.70003 15.4C5.35119 14.3454 4.31278 12.9456 3.69485 11.3488C3.07692 9.75205 2.90248 8.01785 3.19003 6.33001C3.22902 6.06266 3.34399 5.81214 3.52128 5.60826C3.69856 5.40439 3.93069 5.25574 4.19003 5.18001C4.44234 5.10076 4.71238 5.09738 4.9666 5.17027C5.22082 5.24316 5.44803 5.38911 5.62003 5.59001C6.20403 6.35579 6.93792 6.99457 7.77694 7.46737C8.61595 7.94017 9.54249 8.23709 10.5 8.34001C10.5458 7.16186 11.0521 6.04872 11.91 5.24001C12.3384 4.82978 12.8442 4.50892 13.3978 4.29611C13.9515 4.08331 14.542 3.98282 15.1348 4.00051C15.7277 4.01819 16.3111 4.15369 16.8511 4.39912C17.3911 4.64454 17.8768 4.99498 18.28 5.43001C18.3851 5.52287 18.5156 5.58206 18.6547 5.59989C18.7937 5.61772 18.935 5.59337 19.06 5.53001C19.2985 5.41755 19.564 5.37522 19.8255 5.40795C20.0871 5.44068 20.334 5.54712 20.5374 5.71485C20.7407 5.88258 20.8922 6.10469 20.9742 6.35526C21.0561 6.60583 21.065 6.87453 21 7.13001C20.7694 8.08012 20.3324 8.9678 19.72 9.73C19.5851 12.5748 18.3309 15.2508 16.231 17.1746C14.1311 19.0985 11.3557 20.1141 8.51003 20ZM8.51003 18H8.59003C9.7527 18.04 10.9117 17.8488 12 17.4375C13.0882 17.0262 14.0839 16.4029 14.9295 15.6039C15.775 14.8049 16.4535 13.8459 16.9257 12.7827C17.3978 11.7195 17.6542 10.5731 17.68 9.41001C17.6965 9.09126 17.828 8.78929 18.05 8.56001C18.2939 8.25125 18.5019 7.91576 18.67 7.56001C18.3098 7.56069 17.9534 7.48533 17.6243 7.33886C17.2952 7.19239 17.0007 6.9781 16.76 6.71001C16.5286 6.48056 16.2538 6.29958 15.9516 6.17767C15.6494 6.05576 15.3259 5.99536 15 6.00001C14.6709 5.9915 14.3434 6.04807 14.0362 6.16648C13.729 6.28489 13.4483 6.4628 13.21 6.69001C12.8886 6.99501 12.6529 7.37907 12.5266 7.80377C12.4002 8.22847 12.3876 8.67891 12.49 9.11L12.75 10.25L11.58 10.33C10.3811 10.4278 9.17529 10.2638 8.04604 9.84937C6.9168 9.43496 5.89111 8.78006 5.04003 7.93001C5.00353 9.2464 5.33283 10.5471 5.99133 11.6876C6.64982 12.828 7.6117 13.7635 8.77003 14.39L9.72003 14.93L9.09003 15.83C8.40872 16.7235 7.47521 17.3923 6.41003 17.75C7.09334 17.9213 7.7956 18.0053 8.50003 18H8.51003Z" fill="white"/>
</svg>
