<svg width="55" height="44" viewBox="0 0 55 44" fill="none" xmlns="http://www.w3.org/2000/svg">
<g clip-path="url(#clip0)">
<path d="M8.47806 30.3109L5.601 31.3621L5.44789 39.9201L15.4068 36.2821C11.9881 35.1372 9.49497 33.1194 8.47806 30.3109" fill="#FDBD39"/>
<path d="M9.984 21.259L0 24.9062L5.60101 31.3641L8.47806 30.3129C7.46344 27.5136 8.08958 24.3532 9.984 21.259Z" fill="#F69833"/>
<path d="M26.7824 8.90759C14.0699 13.5511 5.87294 23.1352 8.47806 30.3107L54.5133 13.494C51.9081 6.31847 39.495 4.26408 26.7824 8.90759" fill="#FECF33"/>
<path d="M36.2065 34.8993C48.919 30.2558 57.1296 20.7151 54.5108 13.4962L8.47575 30.3107C11.0946 37.5319 23.494 39.5428 36.2065 34.8993Z" fill="#EE6723"/>
<path d="M54.511 13.494L8.47806 30.3107C9.37842 32.797 12.8176 34.0219 17.6394 34.0219C22.3423 34.0219 28.3615 32.8587 34.6366 30.5667C47.3492 25.9232 56.2911 18.4026 54.511 13.494" fill="#F69833"/>
<path d="M45.3496 9.78528C40.649 9.78528 34.6275 10.9484 28.3524 13.2405C15.6398 17.884 6.69789 25.4022 8.47806 30.3108L54.5132 13.4941C53.6106 11.0079 50.1737 9.78528 45.3496 9.78528" fill="#FDBD39"/>
<path d="M42.8061 40.3747C41.451 40.3747 39.4537 39.1521 36.8669 36.739C33.8071 33.8848 30.3039 29.7029 26.9972 24.9657C23.6928 20.2285 20.978 15.4935 19.351 11.6293C17.58 7.41995 17.3263 4.83311 18.5992 3.93732C18.894 3.73622 19.2436 3.63339 19.6001 3.64253C20.6353 3.64253 22.6554 4.41264 26.3871 8.08723L26.4693 8.16721L26.4579 8.28147C26.4328 8.54655 26.4099 8.81163 26.3894 9.07443L26.3482 9.59317L25.9826 9.22525C21.9607 5.17361 20.1919 4.73714 19.6161 4.73714C19.4515 4.73714 19.3213 4.76913 19.2276 4.8354C18.6746 5.22388 18.638 7.12516 20.3565 11.2042C21.9538 14.9976 24.6298 19.6617 27.8907 24.3372C31.154 29.015 34.6046 33.1329 37.6119 35.9369C40.8523 38.9602 42.3125 39.287 42.7901 39.287C42.9546 39.287 43.0872 39.2527 43.1877 39.1818C43.7705 38.7728 43.7705 36.7367 41.8555 32.3445L41.7663 32.1434L41.9583 32.0383C42.1503 31.9332 42.3376 31.8304 42.5113 31.7298L42.7421 31.5996L42.8495 31.8418C44.2069 34.9542 45.4775 38.9099 43.8116 40.0799C43.5168 40.281 43.1649 40.3838 42.8061 40.3747ZM42.8061 39.8948V40.1348V39.8948Z" fill="#EE6723"/>
<path d="M36.515 34.7669L36.4967 35.0045C36.1745 38.9808 35.329 43.7614 33.1215 43.9556C33.0758 43.9602 33.0301 43.9602 32.9867 43.9602C31.4876 43.9602 30.0685 41.8121 28.7728 37.5777C27.5434 33.5694 26.5905 28.1901 26.09 22.4291C25.5873 16.6682 25.5941 11.2043 26.1106 7.04293C26.6728 2.50911 27.7422 0.141648 29.2916 0.00453624C29.3373 -3.41438e-05 29.3853 -0.00231934 29.431 -0.00231934C30.5187 -0.00231934 32.1572 1.2294 33.8345 6.96523L32.7399 7.17547C32.18 5.26048 31.5699 3.70198 30.9643 2.62794C30.4045 1.63845 29.8583 1.09229 29.431 1.09229C29.4173 1.09229 29.4035 1.09229 29.3875 1.09457C28.7157 1.15399 27.7376 2.78104 27.1938 7.17775C26.6865 11.2637 26.6796 16.6476 27.1755 22.3331C27.6714 28.021 28.6083 33.3204 29.8149 37.2555C30.3542 39.0173 30.946 40.4707 31.5288 41.4556C32.0635 42.3651 32.5822 42.8656 32.9867 42.8656C33.0004 42.8656 33.0141 42.8656 33.0278 42.8633C33.67 42.8085 34.8811 41.1129 35.3907 35.1508L36.515 34.7669Z" fill="#EE6723"/>
</g>
<defs>
<clipPath id="clip0">
<rect width="55" height="43.9625" fill="white"/>
</clipPath>
</defs>
</svg>
